<mxfile host="Electron" modified="2024-03-01T09:03:48.220Z" agent="Mozilla/5.0 (Windows NT 10.0; Win64; x64) AppleWebKit/537.36 (KHTML, like Gecko) draw.io/23.1.5 Chrome/120.0.6099.109 Electron/28.1.0 Safari/537.36" etag="TeVzZ9W7jTuvgKvkGpJH" version="23.1.5" type="device">
  <diagram name="Страница — 1" id="vxvkYbs0Rh379bcGDveC">
    <mxGraphModel dx="1434" dy="884" grid="1" gridSize="10" guides="1" tooltips="1" connect="1" arrows="1" fold="1" page="1" pageScale="1" pageWidth="827" pageHeight="1169" math="0" shadow="0">
      <root>
        <mxCell id="0" />
        <mxCell id="1" parent="0" />
        <mxCell id="8p3fq4H3RUDNB1t1E8xN-21" value="" style="whiteSpace=wrap;html=1;aspect=fixed;" vertex="1" parent="1">
          <mxGeometry x="40" y="20" width="740" height="740" as="geometry" />
        </mxCell>
        <mxCell id="8p3fq4H3RUDNB1t1E8xN-1" value="Клиент: Браузер" style="verticalAlign=top;align=left;spacingTop=8;spacingLeft=2;spacingRight=12;shape=cube;size=10;direction=south;fontStyle=4;html=1;whiteSpace=wrap;" vertex="1" parent="1">
          <mxGeometry x="60" y="130" width="180" height="120" as="geometry" />
        </mxCell>
        <mxCell id="8p3fq4H3RUDNB1t1E8xN-2" value="Модуль администратора" style="shape=module;align=left;spacingLeft=20;align=center;verticalAlign=top;whiteSpace=wrap;html=1;" vertex="1" parent="1">
          <mxGeometry x="80" y="170" width="130" height="50" as="geometry" />
        </mxCell>
        <mxCell id="8p3fq4H3RUDNB1t1E8xN-11" style="edgeStyle=orthogonalEdgeStyle;rounded=0;orthogonalLoop=1;jettySize=auto;html=1;endArrow=none;endFill=0;" edge="1" parent="1" source="8p3fq4H3RUDNB1t1E8xN-3" target="8p3fq4H3RUDNB1t1E8xN-10">
          <mxGeometry relative="1" as="geometry">
            <Array as="points">
              <mxPoint x="530" y="160" />
              <mxPoint x="530" y="160" />
            </Array>
          </mxGeometry>
        </mxCell>
        <mxCell id="8p3fq4H3RUDNB1t1E8xN-3" value="Сервер приложения" style="verticalAlign=top;align=left;spacingTop=8;spacingLeft=2;spacingRight=12;shape=cube;size=10;direction=south;fontStyle=4;html=1;whiteSpace=wrap;" vertex="1" parent="1">
          <mxGeometry x="310" y="130" width="180" height="300" as="geometry" />
        </mxCell>
        <mxCell id="8p3fq4H3RUDNB1t1E8xN-4" value="Планировщик задач" style="shape=module;align=left;spacingLeft=20;align=center;verticalAlign=top;whiteSpace=wrap;html=1;" vertex="1" parent="1">
          <mxGeometry x="335" y="360" width="130" height="50" as="geometry" />
        </mxCell>
        <mxCell id="8p3fq4H3RUDNB1t1E8xN-5" value="Курсы" style="shape=module;align=left;spacingLeft=20;align=center;verticalAlign=top;whiteSpace=wrap;html=1;" vertex="1" parent="1">
          <mxGeometry x="335" y="270" width="130" height="50" as="geometry" />
        </mxCell>
        <mxCell id="8p3fq4H3RUDNB1t1E8xN-6" value="Авторы&lt;div&gt;&lt;br/&gt;&lt;/div&gt;" style="shape=module;align=left;spacingLeft=20;align=center;verticalAlign=top;whiteSpace=wrap;html=1;" vertex="1" parent="1">
          <mxGeometry x="340" y="170" width="130" height="50" as="geometry" />
        </mxCell>
        <mxCell id="8p3fq4H3RUDNB1t1E8xN-8" style="edgeStyle=orthogonalEdgeStyle;rounded=0;orthogonalLoop=1;jettySize=auto;html=1;entryX=0.261;entryY=1.022;entryDx=0;entryDy=0;entryPerimeter=0;endArrow=none;endFill=0;" edge="1" parent="1">
          <mxGeometry relative="1" as="geometry">
            <mxPoint x="240" y="160.02999999999997" as="sourcePoint" />
            <mxPoint x="306.03999999999996" y="160.02999999999997" as="targetPoint" />
          </mxGeometry>
        </mxCell>
        <mxCell id="8p3fq4H3RUDNB1t1E8xN-9" value="HTTPS" style="text;html=1;align=center;verticalAlign=middle;whiteSpace=wrap;rounded=0;" vertex="1" parent="1">
          <mxGeometry x="240" y="130" width="60" height="30" as="geometry" />
        </mxCell>
        <mxCell id="8p3fq4H3RUDNB1t1E8xN-10" value="База данных: SQL SERVER" style="verticalAlign=top;align=left;spacingTop=8;spacingLeft=2;spacingRight=12;shape=cube;size=10;direction=south;fontStyle=4;html=1;whiteSpace=wrap;" vertex="1" parent="1">
          <mxGeometry x="570" y="130" width="180" height="170" as="geometry" />
        </mxCell>
        <mxCell id="8p3fq4H3RUDNB1t1E8xN-12" value="MS SQL SERVER" style="text;html=1;align=center;verticalAlign=middle;whiteSpace=wrap;rounded=0;" vertex="1" parent="1">
          <mxGeometry x="500" y="130" width="60" height="30" as="geometry" />
        </mxCell>
        <mxCell id="8p3fq4H3RUDNB1t1E8xN-13" value="Module" style="shape=module;align=left;spacingLeft=20;align=center;verticalAlign=top;whiteSpace=wrap;html=1;" vertex="1" parent="1">
          <mxGeometry x="600" y="170" width="100" height="50" as="geometry" />
        </mxCell>
        <mxCell id="8p3fq4H3RUDNB1t1E8xN-14" value="Module" style="shape=module;align=left;spacingLeft=20;align=center;verticalAlign=top;whiteSpace=wrap;html=1;" vertex="1" parent="1">
          <mxGeometry x="600" y="230" width="100" height="50" as="geometry" />
        </mxCell>
        <mxCell id="8p3fq4H3RUDNB1t1E8xN-16" value="Планировщик задач" style="verticalAlign=top;align=left;spacingTop=8;spacingLeft=2;spacingRight=12;shape=cube;size=10;direction=south;fontStyle=4;html=1;whiteSpace=wrap;" vertex="1" parent="1">
          <mxGeometry x="570" y="320" width="180" height="120" as="geometry" />
        </mxCell>
        <mxCell id="8p3fq4H3RUDNB1t1E8xN-17" value="Менеджер курсов" style="shape=module;align=left;spacingLeft=20;align=center;verticalAlign=top;whiteSpace=wrap;html=1;" vertex="1" parent="1">
          <mxGeometry x="600" y="360" width="100" height="50" as="geometry" />
        </mxCell>
        <mxCell id="8p3fq4H3RUDNB1t1E8xN-19" style="edgeStyle=orthogonalEdgeStyle;rounded=0;orthogonalLoop=1;jettySize=auto;html=1;entryX=0;entryY=0;entryDx=65;entryDy=180;entryPerimeter=0;endArrow=none;endFill=0;" edge="1" parent="1" source="8p3fq4H3RUDNB1t1E8xN-3" target="8p3fq4H3RUDNB1t1E8xN-16">
          <mxGeometry relative="1" as="geometry">
            <Array as="points">
              <mxPoint x="510" y="385" />
              <mxPoint x="510" y="385" />
            </Array>
          </mxGeometry>
        </mxCell>
        <mxCell id="8p3fq4H3RUDNB1t1E8xN-20" value="API" style="text;html=1;align=center;verticalAlign=middle;whiteSpace=wrap;rounded=0;" vertex="1" parent="1">
          <mxGeometry x="500" y="360" width="60" height="30" as="geometry" />
        </mxCell>
        <mxCell id="8p3fq4H3RUDNB1t1E8xN-22" value="Информационная система поддержки процессов дополнительного образования. Модуль администратора" style="text;html=1;align=center;verticalAlign=middle;whiteSpace=wrap;rounded=0;" vertex="1" parent="1">
          <mxGeometry x="287.5" y="40" width="275" height="30" as="geometry" />
        </mxCell>
      </root>
    </mxGraphModel>
  </diagram>
</mxfile>
